<?xml version="1.0" encoding="UTF-8" standalone="no"?>
<!DOCTYPE svg PUBLIC "-//W3C//DTD SVG 20010904//EN"
 "http://www.w3.org/TR/2001/REC-SVG-20010904/DTD/svg10.dtd">
<svg
   version="1.0"
   width="1041.000000pt"
   height="1280.000000pt"
   viewBox="0 0 1041.000000 1041.000000"
   preserveAspectRatio="xMidYMid meet"
   id="svg12"
   sodipodi:docname="3-winesX.svg"
   inkscape:version="1.1.2 (b8e25be833, 2022-02-05)"
   xmlns:inkscape="http://www.inkscape.org/namespaces/inkscape"
   xmlns:sodipodi="http://sodipodi.sourceforge.net/DTD/sodipodi-0.dtd"
   xmlns="http://www.w3.org/2000/svg"
   xmlns:svg="http://www.w3.org/2000/svg">
  <defs
     id="defs16" />
  <sodipodi:namedview
     id="namedview14"
     pagecolor="#ffffff"
     bordercolor="#666666"
     borderopacity="1.0"
     inkscape:pageshadow="2"
     inkscape:pageopacity="0.0"
     inkscape:pagecheckerboard="0"
     inkscape:document-units="pt"
     showgrid="false"
     inkscape:zoom="0.45117188"
     inkscape:cx="694.85714"
     inkscape:cy="458.80519"
     inkscape:window-width="1920"
     inkscape:window-height="974"
     inkscape:window-x="-11"
     inkscape:window-y="-11"
     inkscape:window-maximized="1"
     inkscape:current-layer="svg12" />
  <metadata
     id="metadata2">
Created by potrace 1.15, written by Peter Selinger 2001-2017
</metadata>
  <g
     transform="matrix(4.1793088e-4,0.08371201,0.08371201,-4.1793088e-4,-9.8250462,47.286226)"
     fill="#000000"
     stroke="none"
     id="g10">
    <path
       d="m 1180,12580 c 0,-18 -7,-20 -65,-20 h -65 v -313 c 0,-308 0,-313 22,-331 l 21,-19 -6,-421 c -15,-935 -61,-1720 -109,-1889 -8,-25 -21,-43 -39,-53 C 897,9513 785,9426 670,9324 374,9064 168,8795 93,8570 76,8517 75,8371 75,4620 V 725 L 97,685 C 141,601 283,494 454,415 953,183 1788,155 2382,350 c 205,67 396,171 495,268 80,78 73,-313 73,4001 0,4257 5,3907 -64,4054 -42,87 -98,175 -173,271 -83,105 -351,369 -483,474 -196,157 -178,136 -190,227 -27,220 -47,802 -56,1645 l -7,605 22,19 c 21,19 21,25 21,333 v 315 l -65,-4 c -62,-3 -65,-2 -65,20 v 22 h -355 c -348,0 -355,0 -355,-20 z"
       id="path4" />
    <path
       d="m 4938,12548 c -3,-21 -9,-23 -70,-26 l -68,-3 v -304 -304 l 26,-26 26,-26 -6,-342 c -20,-1048 -62,-1783 -111,-1952 -13,-44 -21,-54 -67,-82 -72,-43 -231,-176 -361,-303 -245,-237 -415,-482 -462,-667 -13,-52 -15,-498 -13,-3948 l 3,-3890 30,-45 c 65,-95 250,-215 447,-290 257,-97 503,-139 851,-147 387,-9 685,30 987,129 254,83 484,227 532,333 l 23,50 v 3890 3890 l -23,65 c -95,264 -416,634 -799,919 -71,52 -71,53 -82,114 -27,162 -47,677 -62,1611 l -10,659 26,26 25,27 v 307 306 l -67,3 c -62,3 -68,5 -71,26 l -3,22 h -349 -349 z"
       id="path6" />
    <path
       d="m 8640,12525 c 0,-24 -2,-25 -65,-25 h -65 v -308 c 0,-303 0,-309 21,-328 l 22,-19 -7,-450 c -10,-740 -48,-1503 -87,-1755 -19,-128 -20,-129 -117,-197 -48,-34 -135,-104 -192,-154 -346,-304 -574,-619 -609,-840 -7,-43 -9,-1337 -6,-3923 l 4,-3859 22,-40 c 37,-72 152,-163 299,-236 297,-149 650,-221 1090,-221 585,0 1081,137 1367,377 39,33 57,57 72,99 l 21,55 v 3862 c 0,4202 4,3909 -55,4042 -32,72 -116,203 -191,297 -128,160 -389,408 -566,537 -43,31 -80,63 -82,71 -34,99 -61,751 -72,1738 l -7,597 22,19 c 21,19 21,25 21,328 v 308 h -65 c -63,0 -65,1 -65,25 v 25 h -355 -355 z"
       id="path8" />
  </g>
</svg>
